HIERARCHY
ROOT pelvis
{
	OFFSET 0.000000 0.000000 0.697506
	CHANNELS 6 Xposition Yposition Zposition Xrotation Yrotation Zrotation
	JOINT spine
	{
		OFFSET 0.000000 0.000000 0.000000
		CHANNELS 6 Xposition Yposition Zposition Xrotation Yrotation Zrotation
		JOINT spine.001
		{
			OFFSET 0.000000 -0.012044 0.229818
			CHANNELS 3 Xrotation Yrotation Zrotation
			JOINT neck
			{
				OFFSET 0.000000 0.028046 0.228418
				CHANNELS 6 Xposition Yposition Zposition Xrotation Yrotation Zrotation
				JOINT face
				{
					OFFSET 0.000000 0.002402 0.137628
					CHANNELS 6 Xposition Yposition Zposition Xrotation Yrotation Zrotation
					End Site
					{
						OFFSET 0.000000 -0.024765 -0.006803
					}
				}
			}
			JOINT shoulder.L
			{
				OFFSET 0.000000 0.028046 0.228418
				CHANNELS 6 Xposition Yposition Zposition Yrotation Xrotation Zrotation
				JOINT upper_arm.L
				{
					OFFSET 0.137894 0.000000 0.000000
					CHANNELS 6 Xposition Yposition Zposition Xrotation Yrotation Zrotation
					JOINT forearm.L
					{
						OFFSET 0.215118 0.000101 0.000839
						CHANNELS 6 Xposition Yposition Zposition Xrotation Yrotation Zrotation
						End Site
						{
							OFFSET 0.188199 -0.003192 -0.001153
						}
					}
				}
			}
			JOINT shoulder.R
			{
				OFFSET 0.000000 0.028046 0.228418
				CHANNELS 6 Xposition Yposition Zposition Yrotation Xrotation Zrotation
				JOINT upper_arm.R
				{
					OFFSET -0.137894 0.000000 0.000000
					CHANNELS 6 Xposition Yposition Zposition Xrotation Yrotation Zrotation
					JOINT forearm.R
					{
						OFFSET -0.223398 0.000101 0.000839
						CHANNELS 6 Xposition Yposition Zposition Xrotation Yrotation Zrotation
						End Site
						{
							OFFSET -0.201250 -0.003420 -0.001154
						}
					}
				}
			}
		}
	}
	JOINT pelvis.L
	{
		OFFSET 0.000000 0.000000 0.000000
		CHANNELS 6 Xposition Yposition Zposition Yrotation Xrotation Zrotation
		End Site
		{
			OFFSET 0.092256 0.000000 0.000000
		}
	}
	JOINT pelvis.R
	{
		OFFSET 0.000000 0.000000 0.000000
		CHANNELS 6 Xposition Yposition Zposition Yrotation Xrotation Zrotation
		End Site
		{
			OFFSET -0.092257 0.000000 0.000000
		}
	}
	JOINT thigh.L
	{
		OFFSET 0.092256 0.000000 0.000000
		CHANNELS 6 Xposition Yposition Zposition Xrotation Yrotation Zrotation
		JOINT shin.L
		{
			OFFSET 0.017101 0.000000 -0.326309
			CHANNELS 6 Xposition Yposition Zposition Xrotation Yrotation Zrotation
			JOINT foot.L
			{
				OFFSET 0.015690 0.000000 -0.299389
				CHANNELS 3 Xrotation Yrotation Zrotation
				End Site
				{
					OFFSET 0.015611 -0.159173 -0.066839
				}
			}
			JOINT heel.02.L
			{
				OFFSET 0.015690 0.000000 -0.299389
				CHANNELS 3 Xrotation Yrotation Zrotation
				End Site
				{
					OFFSET -0.075241 0.030160 -0.074989
				}
			}
		}
	}
	JOINT thigh.R
	{
		OFFSET -0.092257 0.000000 0.000000
		CHANNELS 6 Xposition Yposition Zposition Xrotation Yrotation Zrotation
		JOINT shin.R
		{
			OFFSET -0.016922 0.000000 -0.322887
			CHANNELS 6 Xposition Yposition Zposition Xrotation Yrotation Zrotation
			JOINT foot.R
			{
				OFFSET -0.016152 0.000000 -0.308203
				CHANNELS 3 Xrotation Yrotation Zrotation
				End Site
				{
					OFFSET -0.015851 -0.161616 -0.067865
				}
			}
			JOINT heel.02.R
			{
				OFFSET -0.016152 0.000000 -0.308203
				CHANNELS 3 Xrotation Yrotation Zrotation
				End Site
				{
					OFFSET 0.086585 0.030160 -0.070178
				}
			}
		}
	}
}
MOTION
Frames: 7
Frame Time: 0.041667
-0.022755 -0.033942 0.660507 -0.000000 0.000000 -3.024125 0.000000 0.000000 -0.000000 -1.889622 1.925589 0.132798 9.993303 -0.306692 -2.498626 -0.000000 0.028046 0.228418 5.416279 -5.055166 -3.783432 -0.000000 0.002402 0.137628 -1.060879 0.000001 -0.000001 -0.000000 0.028046 0.228417 -4.265280 0.019482 0.523206 0.137894 -0.000000 -0.000000 19.158909 75.787424 -24.476439 0.215118 0.000101 0.000839 1.286773 9.595480 -14.323192 -0.000000 0.028046 0.228417 -4.211045 0.018990 0.516569 -0.137894 -0.000000 -0.000000 -15.188092 -72.294363 -20.587047 -0.223398 0.000101 0.000839 2.256096 -12.463833 19.486157 0.000000 0.000000 -0.000000 0.312132 0.000000 0.000063 0.000000 0.000000 -0.000000 0.312132 0.000000 -0.000000 0.092255 0.000000 -0.000503 12.114746 2.586217 0.363224 0.017101 -0.000000 -0.326309 -9.560381 -1.156519 -0.598599 -6.132403 1.092522 -3.532900 6.954703 -26.296208 -20.198763 -0.092255 0.000000 0.000503 0.225423 -8.547326 0.005051 -0.016922 0.000000 -0.322887 12.702530 1.164393 -0.797624 -11.402068 0.502893 1.230613 2.985844 35.129538 28.901396 
-0.021954 -0.034100 0.661069 -0.000000 0.000000 -2.934439 -0.000000 0.000000 -0.000000 -1.926372 1.840614 0.127531 9.991587 -0.342951 -2.794317 -0.000000 0.028046 0.228418 5.750086 -4.677224 -3.087531 0.000000 0.002402 0.137628 -0.697480 0.000002 0.000004 -0.000000 0.028046 0.228418 -3.980762 0.016975 0.488379 0.137894 -0.000000 -0.000000 20.887574 75.172973 -26.934089 0.215118 0.000101 0.000839 1.069193 9.195031 -12.209288 -0.000000 0.028046 0.228418 -3.926580 0.016516 0.481711 -0.137894 -0.000000 0.000000 -15.567808 -72.163380 -21.147055 -0.223398 0.000101 0.000839 2.452249 -13.112518 20.119620 -0.000000 0.000000 0.000000 0.702978 0.000000 -0.000071 -0.000000 0.000000 0.000000 0.703015 0.000000 0.000000 0.092250 -0.000000 -0.001132 11.159872 2.731164 0.320241 0.017101 0.000000 -0.326309 -7.045887 -1.272135 -0.447785 -8.467129 1.199107 -4.043279 7.032008 -26.838556 -20.632427 -0.092250 0.000000 0.001132 0.629855 -8.125324 0.011771 -0.016922 0.000000 -0.322887 12.445051 0.772025 -0.738702 -13.005881 0.231911 1.984930 2.274800 35.541818 28.529043 
-0.021121 -0.033925 0.661422 -0.000000 0.000000 -2.875692 -0.000000 0.000000 0.000000 -1.932540 1.758318 0.121922 9.990114 -0.372703 -3.036798 0.000000 0.028046 0.228418 5.902493 -4.350922 -2.545224 0.000000 0.002402 0.137628 -0.318201 0.000000 0.000001 -0.000000 0.028046 0.228417 -3.725185 0.014859 0.456962 0.137894 -0.000000 -0.000000 21.978043 74.695406 -28.548490 0.215118 0.000101 0.000839 0.906716 8.831700 -10.585822 -0.000000 0.028046 0.228418 -3.670944 0.014431 0.450368 -0.137894 0.000000 0.000000 -15.674511 -72.102803 -21.313803 -0.223398 0.000101 0.000839 2.593214 -13.569305 20.549748 -0.000000 0.000000 0.000000 1.013404 -0.000001 0.000075 -0.000000 0.000000 0.000000 1.013441 0.000000 -0.000000 0.092242 0.000000 -0.001632 10.556502 2.883923 0.288709 0.017101 -0.000000 -0.326309 -5.522701 -1.421977 -0.358011 -9.980596 1.279435 -4.372002 7.062253 -27.379327 -21.029452 -0.092242 0.000000 0.001632 0.947571 -7.732571 0.014431 -0.016922 -0.000000 -0.322887 12.218183 0.504894 -0.696636 -14.317428 0.189096 2.258251 1.802961 35.762157 28.216246 
-0.020376 -0.033485 0.661576 -0.000000 0.000000 -2.846084 0.000000 -0.000000 0.000000 -1.919520 1.691521 0.117097 9.988740 -0.397342 -3.237940 0.000000 0.028046 0.228418 5.893783 -4.126251 -2.149683 0.000000 0.002402 0.137628 0.029211 0.000000 0.000000 -0.000000 0.028046 0.228418 -3.523972 0.013303 0.432447 0.137894 -0.000000 0.000000 22.567688 74.356602 -29.470446 0.215118 0.000101 0.000839 0.795534 8.556571 -9.422955 -0.000000 0.028046 0.228418 -3.469839 0.012897 0.425777 -0.137894 -0.000000 0.000000 -15.406701 -72.106095 -20.951342 -0.223398 0.000101 0.000839 2.664064 -13.821421 20.715820 0.000000 -0.000000 0.000000 1.215890 0.000001 -0.000053 0.000000 -0.000000 0.000000 1.215890 0.000000 0.000000 0.092236 0.000000 -0.001958 10.316769 3.013612 0.270401 0.017101 -0.000000 -0.326309 -4.959932 -1.572797 -0.327989 -10.673721 1.319273 -4.522141 7.066494 -27.910759 -21.402879 -0.092236 -0.000000 0.001958 1.188725 -7.409350 0.014721 -0.016922 0.000000 -0.322887 12.014307 0.440227 -0.678141 -15.348712 0.390394 2.064843 1.620523 35.727118 27.946156 
-0.019865 -0.033006 0.661606 -0.000000 0.000000 -2.808392 0.000000 0.000000 -0.000000 -1.927883 1.644701 0.113976 9.987716 -0.414662 -3.379329 -0.000000 0.028046 0.228418 5.943458 -4.012231 -1.857840 0.000000 0.002402 0.137628 0.186902 0.000000 0.000001 -0.000000 0.028046 0.228417 -3.380417 0.012240 0.414811 0.137894 -0.000000 -0.000000 23.211365 74.011165 -30.473442 0.215118 0.000101 0.000839 0.709271 8.442939 -8.326927 -0.000000 0.028046 0.228418 -3.326178 0.011853 0.408178 -0.137894 -0.000000 -0.000000 -14.835751 -72.114346 -20.177670 -0.223398 0.000101 0.000839 2.693388 -13.981606 20.688856 0.000000 -0.000000 -0.000000 1.344151 0.000000 -0.000032 0.000000 -0.000000 -0.000000 1.344113 0.000000 0.000000 0.092231 -0.000000 -0.002164 10.175153 3.091286 0.259749 0.017101 -0.000000 -0.326309 -4.635839 -1.678068 -0.310777 -11.081827 1.356576 -4.634561 6.969350 -28.411828 -21.674144 -0.092231 -0.000000 0.002164 1.416975 -7.171180 0.014578 -0.016922 0.000000 -0.322887 11.787546 0.531227 -0.674616 -16.176434 0.635144 1.777248 1.619865 35.514422 27.683831 
-0.019561 -0.032472 0.661469 -0.000000 0.000000 -2.710266 0.000000 0.000000 0.000000 -1.993819 1.590408 0.111133 9.988273 -0.406210 -3.310224 0.000000 0.028046 0.228418 6.276167 -3.961484 -1.795490 -0.000000 0.002402 0.137628 0.016201 -0.000000 0.000002 -0.000000 0.028046 0.228417 -3.266311 0.011428 0.400783 0.137894 -0.000000 -0.000000 24.360401 73.531064 -32.210458 0.215118 0.000101 0.000839 0.634108 8.500995 -7.156723 -0.000000 0.028046 0.228417 -3.212066 0.011051 0.394199 -0.137894 0.000000 0.000000 -14.126053 -72.085393 -19.228552 -0.223398 0.000101 0.000839 2.703544 -14.128454 20.528531 0.000000 0.000000 0.000000 1.451570 0.000000 -0.000005 0.000000 0.000000 0.000000 1.451570 0.000000 -0.000000 0.092227 -0.000000 -0.002337 9.944025 3.124154 0.250957 0.017101 -0.000000 -0.326309 -4.093767 -1.744974 -0.276788 -11.573484 1.439140 -4.837125 6.740932 -28.855811 -21.798655 -0.092227 -0.000000 0.002337 1.654576 -6.976980 0.014198 -0.016922 0.000000 -0.322887 11.495374 0.605720 -0.665253 -16.758545 0.754149 1.669183 1.732721 35.228743 27.476692 
-0.019383 -0.031821 0.661120 -0.000000 0.000000 -2.506233 0.000000 0.000000 0.000000 -2.150187 1.492513 0.106338 9.991225 -0.349446 -2.847384 -0.000000 0.028046 0.228417 6.916465 -3.929528 -2.304006 -0.000000 0.002402 0.137628 -0.441686 0.000000 0.000001 -0.000000 0.028046 0.228418 -3.159891 0.010693 0.387685 0.137894 -0.000000 0.000000 26.073508 72.839063 -34.822545 0.215118 0.000101 0.000839 0.573512 8.769837 -5.999671 -0.000000 0.028046 0.228418 -3.105697 0.010332 0.381083 -0.137894 -0.000000 0.000000 -13.491975 -71.987086 -18.402645 -0.223398 0.000101 0.000839 2.700331 -14.299524 20.224923 0.000000 0.000000 0.000000 1.562328 0.000001 -0.000097 0.000000 0.000000 0.000000 1.562364 0.000000 0.000000 0.092222 0.000000 -0.002515 9.646638 3.131676 0.242781 0.017101 0.000000 -0.326309 -3.431166 -1.813694 -0.234008 -12.120051 1.586768 -5.159767 6.449207 -29.248878 -21.837196 -0.092222 -0.000000 0.002515 1.899857 -6.793098 0.013233 -0.016922 0.000000 -0.322887 11.098214 0.530006 -0.634791 -17.025505 0.777746 1.671627 1.930432 34.949617 27.386769 
